<?xml version="1.0" encoding="utf-8"?>
<!-- Generator: Adobe Illustrator 22.1.0, SVG Export Plug-In . SVG Version: 6.00 Build 0)  -->
<svg version="1.1" id="logo" xmlns="http://www.w3.org/2000/svg" xmlns:xlink="http://www.w3.org/1999/xlink" x="0px" y="0px"
	 viewBox="0 0 500 500" style="enable-background:new 0 0 500 500;" xml:space="preserve">
<style type="text/css">
	.st0{filter:url(#Adobe_OpacityMaskFilter);}
	.st1{mask:url(#wings_1_);}
	.st2{fill:#1A1A1A;}
	.st3{fill:#333333;}
	.st4{fill:#4D4D4D;}
	.st5{fill:#E6E6E6;}
</style>
<defs>
	<filter id="Adobe_OpacityMaskFilter" filterUnits="userSpaceOnUse" x="36.197" y="41.633" width="427.605" height="416.735">
		<feFlood  style="flood-color:white;flood-opacity:1" result="back"/>
		<feBlend  in="SourceGraphic" in2="back" mode="normal"/>
	</filter>
</defs>
<mask maskUnits="userSpaceOnUse" x="36.197" y="41.633" width="427.605" height="416.735" id="wings_1_">
	<g class="st0">
		<path d="M377.023,275.2l-12.134-7.594l-5.927-3.709l-3.716,5.922c-6.927,11.039-18.902,17.63-32.032,17.63
			c-1.457,0-2.937-0.099-4.427-0.28c6.948-10.546,11.008-23.173,11.008-36.739c0-14.015-4.363-27.303-12.424-38.368
			c1.969-0.314,3.926-0.48,5.842-0.48c4.664,0,9.213,0.809,13.52,2.404l6.506,2.41l2.468-6.484l5.119-13.449l2.483-6.524
			l-6.517-2.501c-7.577-2.908-15.51-4.383-23.578-4.383c-8.554,0-16.943,1.646-24.934,4.893l-6.981,2.836
			c-8.644-3.935-18.138-6.017-27.97-6.017c-8.919,0-17.555,1.842-25.592,5.38l-7.08-2.723c-7.963-3.063-15.921-4.616-23.653-4.616
			c-16.451,0-32.357,6.328-44.788,17.817c-10.518,9.721-17.613,22.185-20.378,35.611h-7.884c-7.865,0-14.263,6.503-14.263,14.497
			c0,7.994,6.398,14.497,14.263,14.497h8.687c3.226,13.279,10.506,25.331,20.889,34.412c12.063,10.551,27.53,16.362,43.554,16.362
			c7.999,0,15.928-1.508,23.567-4.482l2.803-1.091c9.135,4.444,19.265,6.76,29.875,6.76c11.177,0,21.712-2.798,30.966-7.714
			l3.99,1.621c7.991,3.246,16.378,4.892,24.93,4.892c22.613,0,43.545-11.62,55.992-31.085l3.808-5.955L377.023,275.2z
			 M183.185,236.237h-11.833c5.507-14.444,19.846-24.874,35.652-24.874c1.309,0,2.614,0.11,3.867,0.266
			c-5.488,7.321-9.55,15.717-11.819,24.607h-3.361L183.185,236.237z M172.544,265.23h10.641h12.786l-0.001-0.001h2.263l0.609,2.489
			c1.746,7.132,4.612,13.764,8.486,19.737c-0.104,0.001-0.211,0.008-0.315,0.008C192.255,287.464,178.692,278.349,172.544,265.23z
			 M257.428,265.229c7.865,0,14.263-6.503,14.263-14.497c0-7.994-6.398-14.497-14.263-14.497h-28.23
			c6.323-13.88,19.568-22.942,34.131-22.942c21.275,0,37.941,16.302,37.941,37.112c0,20.964-17.375,38.674-37.941,38.674
			c-16.349,0-30.121-9.313-35.487-23.85H257.428z"/>
	</g>
</mask>
<g id="wings" class="st1">
	<g id="w3">
		<g>
			<g>
				<path class="st2" d="M324.419,316.747c13.905-6.121,28.173-13.637,42.448-22.524c14.415-1.537,31.463-4.89,51.779-10.422
					c12.44,1.955,27.6,2.448,45.157,1.191C400.674,309.872,356.563,318.194,324.419,316.747z"/>
			</g>
			<g>
				<path class="st2" d="M319.295,143.796c-7.583,7.472-14.888,12.381-22.545,15.143c0.694-28.744-8.845-68.89-25.135-117.306
					c7.884,7.6,15.29,15.174,22.201,22.661C308.76,101.266,315.273,125.652,319.295,143.796z"/>
			</g>
			<g>
				<path class="st2" d="M147.708,186.507c8.742,4.475,15.868,8.275,22.115,11.756c-30.794,0.602-73.114,11.661-133.626,39.598
					c19.113-19.397,37.898-34.566,55.359-46.098C113.418,188.171,131.943,186.529,147.708,186.507z"/>
			</g>
			<g>
				<path class="st2" d="M189.277,333.637c3.028,5.655,6.427,11.444,10.242,17.332c4.325,22.696,13.599,46.744,24.163,68.082
					c-5.964,10.371-11.895,23.576-18.541,39.317C188.32,394.441,186.421,358.217,189.277,333.637z"/>
			</g>
		</g>
		<g>
			<g>
				<path class="st2" d="M297.274,289.207c2.57-4.092,10.259-9.518,2.626-7.91c32.321-15.022,48.445-42.599,58.59-60.956
					c7.45-27.197,23.417-20.96,13.827-133.338c15.735,98.355-1.39,108.653,9.887,102.367
					c-18.584,53.428-28.936,56.187-38.085,67.813C334.672,265.682,323.161,278.602,297.274,289.207z"/>
			</g>
			<g>
				<path class="st2" d="M292.448,200.967c-3.242-2.756-8.03-9.856-6.354-2.302c-18.175-31.767-46.609-46.966-66.483-56.82
					c-27.156-7.781-26.778-21.528-127.565-16.139c59.894-10.221,81.725-7.25,94.497-6.717c11.508,1.127,13.957-0.185,5.903-5.266
					c46.391,21.811,56.345,32.799,67,42.944C268.693,167.049,278.64,176.589,292.448,200.967z"/>
			</g>
			<g>
				<path class="st2" d="M205.469,211.309c-6.674,4.583-16.23,12.246-10.547,11.15c-20.898,14.708-26.819,24.465-35.753,33.442
					c-5.133,4.549-9.169,12.973-17.077,28.896c-6.995,17.916-17.863,43.332-15.575,127.894
					c-16.301-72.477-8.041-82.928-21.449-58.956c30.658-105.624,57.429-109.714,68.294-122.93
					C185.915,222.389,190.77,218.91,205.469,211.309z"/>
			</g>
			<g>
				<path class="st2" d="M215.65,296.421c5.892,7.921,16.541,19.539,14.793,13.657c13.408,19.537,22.261,25.586,30.583,34.157
					c4.104,5.095,12.385,8.485,27.715,15.678c17.469,6.115,41.986,16.033,127.951,9.3c-68.381,14.958-89.205,5.32-70.546,16.447
					c-102.882-24.735-99.667-48.241-113.08-57.822C225.912,316.564,221.938,310.872,215.65,296.421z"/>
			</g>
		</g>
	<animateTransform xmlns="http://www.w3.org/2000/svg" accumulate="none" additive="replace" attributeName="transform" calcMode="linear" dur="240s" fill="remove" from="0 250 250" repeatCount="indefinite" restart="always" to="360 250 250" type="rotate"></animateTransform>
</g>
	<g id="w2">
		<g>
			<g>
				<path class="st3" d="M207.588,173.177c-12.63,0.814-25.942,2.616-39.651,5.488c-11.718-2.919-26.016-5.169-43.492-6.649
					c-9.175-5.086-20.895-9.806-34.991-13.842C145.959,156.756,182.851,162.856,207.588,173.177z"/>
			</g>
			<g>
				<path class="st3" d="M162.152,309.964c8.069-3.678,15.188-5.431,21.969-5.403c-8.76,22.292-12.774,56.43-13.87,98.969
					c-3.996-8.2-7.625-16.244-10.892-24.078C158.237,346.252,160.113,325.31,162.152,309.964z"/>
			</g>
			<g>
				<path class="st3" d="M308.616,325.599c-5.561-6-10.05-11.011-13.943-15.521c24.266,8.333,60.54,11.778,115.873,7.219
					c-20.5,9.713-39.534,16.211-56.493,20.242C335.921,334.101,320.958,330.09,308.616,325.599z"/>
			</g>
			<g>
				<path class="st3" d="M318.155,198.598c-0.753-5.291-1.757-10.791-3.059-16.489c3.105-18.994,2.723-40.461,0.558-60.177
					c7.632-6.41,16.047-15.046,25.747-25.462C336.286,151.296,327.417,180.182,318.155,198.598z"/>
			</g>
		</g>
		<g>
			<g>
				<path class="st3" d="M220.953,202.485c-3.181,2.467-10.748,4.514-4.316,5.438c-29.583,2.514-50.083,19.481-63.269,30.944
					c-13.604,19.15-24.314,9.705-48.938,100.374c15.807-81.454,32.15-84.615,21.53-82.921c29.815-36.491,38.703-35.69,49.186-42.17
					C184.967,210.201,197.666,203.383,220.953,202.485z"/>
			</g>
			<g>
				<path class="st3" d="M199.503,272.907c1.749,3.083,3.465,10.008,4.313,3.618c5.139,30.051,23.041,50.072,35.774,63.464
					c19.023,13.852,14.798,24.499,95.196,49.096c-49.785-9.125-66.017-17.691-75.857-21.76c-8.682-4.171-10.973-3.845-6.124,2.433
					c-30.062-30.328-34.709-41.771-40.146-52.755C208.393,306.236,203.337,295.928,199.503,272.907z"/>
			</g>
			<g>
				<path class="st3" d="M270.514,289.68c6.532-1.678,16.199-4.942,11.44-5.709c20.556-5.534,27.978-11.475,37.535-15.944
					c5.317-2.092,10.883-7.529,21.623-17.727c10.595-12.018,26.364-28.797,48.749-95.615c-7.965,61.368-17.416,67.183-0.072,52.26
					c-54.184,73.878-76.299,69.425-88.579,76.66C288.981,286.601,284.187,287.936,270.514,289.68z"/>
			</g>
			<g>
				<path class="st3" d="M286.88,220.177c-2.346-7.882-7.356-20.016-7.67-14.914c-4.905-19.12-10.103-26.384-14.164-35.469
					c-1.754-5.159-7.265-10.18-17.203-20.19c-11.92-9.779-28.267-24.547-97.454-43.856c57.779,7.846,71.317,21.34,59.899,7.3
					c73.426,48.766,64.191,66.238,71.946,77.569C284.609,201.482,286.092,207.072,286.88,220.177z"/>
			</g>
		</g>
	<animateTransform xmlns="http://www.w3.org/2000/svg" accumulate="none" additive="replace" attributeName="transform" calcMode="linear" dur="120s" fill="remove" from="0 250 250" repeatCount="indefinite" restart="always" to="360 250 250" type="rotate"></animateTransform>
</g>
	<g id="w1">
		<g>
			<g>
				<path class="st4" d="M181.917,284.78c0.317,10.974,1.469,22.57,3.537,34.543c-2.891,10.069-5.282,22.394-7.103,37.499
					c-4.692,7.797-9.144,17.812-13.077,29.908C165.784,337.702,172.208,305.907,181.917,284.78z"/>
			</g>
			<g>
				<path class="st4" d="M299.1,328.38c-2.94-7.109-4.241-13.334-4.008-19.212c19.055,8.281,48.527,12.811,85.37,15.071
					c-7.232,3.212-14.317,6.11-21.208,8.701C330.438,332.892,312.341,330.62,299.1,328.38z"/>
			</g>
			<g>
				<path class="st4" d="M317.164,201.89c-5.373,4.636-9.855,8.373-13.884,11.609c7.971-20.78,12.075-52.12,9.826-100.229
					c7.789,18.071,12.837,34.772,15.809,49.598C325.375,178.481,321.437,191.329,317.164,201.89z"/>
			</g>
			<g>
				<path class="st4" d="M207.359,189.711c-4.61,0.49-9.409,1.191-14.389,2.144c-16.371-3.276-34.992-3.607-52.151-2.336
					c-5.322-6.813-12.549-14.374-21.281-23.105C166.91,172.537,191.679,181.115,207.359,189.711z"/>
			</g>
		</g>
		<g>
			<g>
				<path class="st4" d="M207.736,274.096c2.041,2.833,3.583,9.457,4.581,3.909c1.268,25.723,15.346,44.017,24.878,55.801
					c16.182,12.383,7.665,21.377,85.509,45.515c-70.127-16.211-72.364-30.476-71.223-21.217
					c-30.716-26.971-29.749-34.651-35.044-43.938C213.317,305.53,207.797,294.311,207.736,274.096z"/>
			</g>
			<g>
				<path class="st4" d="M268.125,294.86c2.727-1.421,8.782-2.696,3.269-3.628c26.21-3.53,44.118-18.433,56.119-29.059
					c12.594-16.065,21.694-12.074,45.493-81.015c-9.444,42.878-17.369,56.686-21.199,65.092c-3.884,7.398-3.672,9.395,1.92,5.384
					c-27.217,25.128-37.28,28.804-46.97,33.179C297.292,288.179,288.2,292.244,268.125,294.86z"/>
			</g>
			<g>
				<path class="st4" d="M284.852,233.815c-1.254-5.714-3.785-14.196-4.597-10.093c-4.164-17.99-9.086-24.607-12.667-33.03
					c-1.65-4.674-6.192-9.666-14.702-19.291c-10.093-9.555-24.153-23.742-81.389-45.205c52.956,8.795,57.706,17.167,45.303,1.671
					c62.378,49.247,57.836,68.282,63.73,79.15C282.751,217.711,283.762,221.908,284.852,233.815z"/>
			</g>
			<g>
				<path class="st4" d="M225.103,217.488c-6.905,1.791-17.579,5.761-13.166,6.19c-16.726,3.664-23.183,7.946-31.184,11.187
					c-4.527,1.362-9.049,5.984-18.033,14.292c-8.844,10.032-22.151,23.749-41.019,83.133c8.58-49.848,20.696-61.169,8.172-51.702
					c44.536-62.153,59.399-53.609,69.461-59.983C208.826,218.881,213.718,217.768,225.103,217.488z"/>
			</g>
		</g>
	<animateTransform xmlns="http://www.w3.org/2000/svg" accumulate="none" additive="replace" attributeName="transform" calcMode="linear" dur="60s" fill="remove" from="0 250 250" repeatCount="indefinite" restart="always" to="360 250 250" type="rotate"></animateTransform>
</g>
</g>
<g id="eol_1_">
	<path class="st5" d="M313.5,205.67c3.132-0.694,6.376-1.088,9.714-1.088c5.625,0,10.994,1.004,15.951,2.84l5.119-13.449
		c-6.55-2.514-13.644-3.918-21.07-3.918c-7.888,0-15.405,1.577-22.299,4.378C305.582,197.626,309.786,201.426,313.5,205.67z"/>
	<path class="st5" d="M361.176,273.54c-7.964,12.691-21.987,20.909-37.961,20.909c-3.335,0-6.575-0.391-9.704-1.082
		c-3.715,4.247-7.923,8.05-12.592,11.246c6.893,2.8,14.41,4.377,22.296,4.377c21.057,0,39.544-11.357,50.095-27.856L361.176,273.54z
		"/>
	<path class="st5" d="M215.234,293.682c-2.665,0.487-5.413,0.781-8.221,0.781c-21.819,0-40.049-16.024-44.096-36.233h20.267
		c-1.251-1.956-2.02-4.839-2.02-7.497c0-2.658,0.769-7.497,2.02-7.497h-20.813c2.893-20.861,21.847-38.874,44.632-38.874
		c2.819,0,5.567,0.383,8.242,0.859c3.806-4.29,8.114-8.068,12.898-11.264c-6.573-2.528-13.686-4.149-21.14-4.149
		c-30.817,0-56.223,24.744-59.171,53.428h-13.879c-4.011,0-7.263,3.485-7.263,7.497c0,4.011,3.252,7.497,7.263,7.497h14.448
		c4.223,28.684,28.846,50.774,58.681,50.774c7.425,0,14.475-1.454,21.028-4.005C223.342,301.803,219.03,297.966,215.234,293.682z"/>
	<path class="st5" d="M322.796,250.43c0-32.791-26.677-58.663-59.467-58.663c-27.648,0-50.88,20.177-57.509,46.254h15.15
		c6.158-18.254,22.796-31.727,42.359-31.727c24.781,0,44.941,19.333,44.941,44.112s-20.16,45.674-44.941,45.674
		c-19.822,0-36.656-11.773-42.612-30.026h-15.075c6.385,26.076,29.791,44.138,57.687,44.138
		C296.12,310.191,322.796,283.221,322.796,250.43z"/>
	<path class="st5" d="M195.691,258.229h61.737c4.011,0,7.263-3.486,7.263-7.497c0-4.011-3.252-7.497-7.263-7.497h-61.737
		c-4.011,0-7.263,3.485-7.263,7.497C188.427,254.745,191.678,258.229,195.691,258.229z"/>
</g>
</svg>
